<?xml version="1.0" standalone="no"?>
<!DOCTYPE svg PUBLIC "-//W3C//DTD SVG 20010904//EN"
 "http://www.w3.org/TR/2001/REC-SVG-20010904/DTD/svg10.dtd">
<svg version="1.0" xmlns="http://www.w3.org/2000/svg"
 width="425.000000pt" height="425.000000pt" viewBox="0 0 425.000000 425.000000"
 preserveAspectRatio="xMidYMid meet">

<g transform="translate(0.000000,425.000000) scale(0.100000,-0.100000)"
fill="#000000" stroke="none">
<path d="M1874 3961 c-359 -65 -664 -207 -934 -436 -351 -298 -567 -709 -627
-1194 -15 -116 -15 -157 -5 -305 32 -471 223 -882 560 -1210 367 -357 837
-534 1362 -513 267 11 485 63 710 170 417 198 758 564 924 992 29 75 66 189
66 202 0 2 -61 2 -136 1 l-137 -3 -47 -110 c-95 -222 -180 -351 -336 -510
-228 -232 -446 -356 -774 -442 -100 -26 -116 -27 -355 -27 -208 -1 -264 2
-335 18 -370 80 -715 299 -938 594 -76 100 -90 124 -161 268 -120 245 -153
392 -154 689 0 290 32 449 139 671 203 425 582 747 1016 863 183 49 446 66
647 41 282 -36 566 -161 789 -348 37 -32 78 -66 91 -77 41 -35 183 -207 232
-283 72 -109 143 -264 179 -387 46 -157 43 -151 87 -158 48 -9 137 -9 186 -1
46 8 46 17 11 139 -123 431 -335 745 -681 1006 -208 157 -478 278 -748 334
-175 37 -474 44 -631 16z"/>
<path d="M1914 3635 c-325 -50 -594 -186 -830 -420 -215 -214 -334 -419 -406
-705 -94 -374 -31 -806 167 -1130 170 -280 379 -465 680 -602 115 -52 167 -70
287 -97 232 -54 469 -49 699 14 123 34 308 108 359 145 14 10 48 30 75 45 224
124 490 444 590 708 14 37 25 72 25 77 0 6 -14 10 -30 10 -22 0 -33 -6 -40
-22 -37 -92 -88 -201 -114 -243 -102 -169 -270 -349 -424 -454 -82 -56 -304
-171 -330 -171 -5 0 -37 -9 -71 -20 -176 -56 -474 -72 -670 -36 -450 82 -843
386 -1036 800 -96 204 -129 362 -129 606 0 207 16 308 72 467 145 404 423 696
817 858 765 315 1653 -103 1899 -895 31 -99 37 -110 60 -110 53 1 53 17 -6
180 -184 511 -619 887 -1138 985 -119 22 -391 28 -506 10z"/>
<path d="M1291 3001 c-21 -14 -3 -31 32 -31 29 1 30 2 12 12 -19 12 -19 12 5
19 24 7 24 7 -5 8 -16 0 -36 -3 -44 -8z"/>
<path d="M1226 2975 c4 -8 1 -15 -5 -15 -6 0 -11 -4 -11 -10 0 -19 45 -10 59
11 12 20 11 21 -8 16 -12 -3 -19 -1 -15 4 3 5 -2 9 -10 9 -10 0 -13 -6 -10
-15z"/>
<path d="M1360 2979 c0 -5 5 -7 10 -4 6 3 10 8 10 11 0 2 -4 4 -10 4 -5 0 -10
-5 -10 -11z"/>
<path d="M1185 2960 c-4 -11 -11 -17 -17 -14 -7 4 -8 2 -4 -5 4 -6 13 -8 19
-4 7 3 0 -6 -15 -22 -22 -22 -31 -25 -42 -16 -9 8 -16 8 -20 2 -4 -5 -2 -12 4
-16 5 -3 10 -13 10 -21 0 -12 -4 -12 -20 -4 -11 6 -20 7 -20 1 0 -16 60 -32
80 -21 28 15 40 12 40 -10 0 -15 6 -19 25 -18 26 2 32 12 15 23 -6 4 -7 11 -4
17 5 7 1 9 -9 5 -23 -9 -29 6 -29 69 -1 59 -3 65 -13 34z"/>
<path d="M1134 2929 c-3 -6 -2 -15 3 -20 5 -5 9 -1 10 11 2 22 -2 25 -13 9z"/>
<path d="M1534 2925 c11 -8 23 -15 26 -15 4 0 7 -7 7 -15 0 -13 -4 -12 -20 2
-15 13 -21 15 -24 6 -3 -7 -11 -13 -19 -13 -18 0 -18 -14 1 -30 8 -7 15 -21
15 -31 0 -11 5 -19 10 -19 6 0 10 5 10 10 0 6 6 10 13 10 6 0 19 11 29 24 15
21 15 24 -9 54 -13 18 -32 32 -41 32 -15 -1 -14 -3 2 -15z"/>
<path d="M1607 2837 c-3 -8 1 -14 8 -14 7 0 11 6 8 14 -3 7 -6 13 -8 13 -2 0
-5 -6 -8 -13z"/>
<path d="M1076 2799 c-7 -17 -11 -45 -9 -63 2 -17 6 -42 8 -56 1 -14 -2 -29
-9 -33 -7 -6 -6 -7 4 -5 18 5 30 58 26 118 -2 32 2 49 13 57 14 11 14 12 -2
13 -11 0 -23 -12 -31 -31z"/>
<path d="M1610 2780 c-1 -3 -4 -49 -6 -102 -2 -65 0 -99 8 -104 6 -4 8 -3 4 4
-3 6 1 15 10 20 9 5 14 15 10 21 -4 6 -11 9 -14 7 -13 -8 -6 42 7 58 7 8 10
20 7 25 -4 5 -2 12 4 16 5 3 10 17 10 31 0 14 -4 23 -9 20 -5 -3 -7 -15 -4
-26 3 -11 1 -20 -5 -20 -6 0 -13 12 -15 28 -2 15 -5 25 -7 22z"/>
<path d="M1100 2625 c0 -22 -3 -25 -25 -19 -32 8 -32 1 5 -36 17 -17 30 -36
30 -43 0 -7 -7 -3 -15 7 -8 11 -15 15 -15 9 0 -6 6 -16 14 -22 17 -14 29 0 20
24 -5 11 0 18 15 22 11 3 21 12 21 20 0 8 -4 12 -9 9 -5 -4 -12 7 -16 24 -8
36 -25 40 -25 5z"/>
<path d="M1440 2635 c0 -8 5 -15 10 -15 6 0 10 7 10 15 0 8 -4 15 -10 15 -5 0
-10 -7 -10 -15z"/>
<path d="M1532 2630 c-6 -11 -12 -40 -12 -64 0 -30 -5 -46 -15 -50 -8 -3 -15
-13 -15 -22 0 -16 2 -15 20 1 20 18 21 18 14 -1 -7 -17 -6 -17 9 -5 9 7 17 22
17 31 0 12 10 21 30 25 37 8 31 24 -7 18 -27 -5 -28 -5 -8 12 11 9 13 13 5 9
-12 -6 -13 -4 -2 7 6 7 12 23 12 36 0 29 -30 31 -48 3z"/>
<path d="M3110 2553 l-35 -4 -82 -232 c-156 -442 -232 -639 -256 -664 -17 -16
-164 -31 -457 -44 -140 -6 -256 -13 -258 -14 -12 -11 93 -163 130 -189 19 -14
68 -16 341 -16 345 0 358 2 409 56 37 41 69 108 139 296 81 219 102 273 208
551 50 132 91 245 91 253 0 11 -19 14 -97 12 -54 -1 -114 -3 -133 -5z"/>
<path d="M1306 2488 c3 -4 0 -9 -5 -9 -6 -1 -17 -2 -23 -3 -7 -1 -18 1 -24 6
-12 9 -106 7 -97 -2 2 -3 10 -5 15 -5 6 0 13 -6 16 -14 3 -10 0 -12 -12 -8
-10 4 -15 3 -11 -3 4 -6 12 -10 18 -9 30 4 52 -2 40 -9 -8 -5 1 -8 22 -9 19
-1 35 2 35 5 0 4 20 6 43 5 42 -2 44 0 39 23 -3 17 0 24 12 24 9 0 16 5 16 10
0 7 -19 10 -44 9 -25 -2 -43 -6 -40 -11z"/>
<path d="M1447 2483 c-4 -3 -7 -11 -7 -17 0 -6 4 -5 9 2 7 11 9 11 14 -1 3 -9
-1 -18 -9 -21 -8 -3 -14 -11 -14 -17 0 -8 4 -9 13 0 8 6 17 8 20 4 8 -7 47 25
47 39 0 5 -9 4 -19 -1 -14 -8 -20 -7 -25 4 -6 16 -18 19 -29 8z"/>
<path d="M1539 2473 c-13 -16 -12 -17 4 -4 9 7 17 15 17 17 0 8 -8 3 -21 -13z"/>
<path d="M1333 2393 c9 -2 25 -2 35 0 9 3 1 5 -18 5 -19 0 -27 -2 -17 -5z"/>
<path d="M1610 2320 c-73 -55 -130 -80 -197 -90 -87 -12 -223 5 -322 41 -47
17 -97 32 -111 33 -25 1 -25 0 -28 -94 -10 -327 124 -670 361 -927 158 -170
412 -309 672 -368 117 -26 254 -31 480 -16 92 6 97 7 65 18 -61 19 -239 92
-303 125 -194 97 -324 268 -462 606 -37 92 -85 236 -85 256 0 13 24 5 53 -20
39 -33 147 -86 221 -109 47 -14 82 -17 183 -13 68 3 128 9 133 14 6 6 -21 14
-71 22 -150 24 -294 83 -376 155 -60 53 -143 263 -143 363 0 18 -4 35 -9 38
-4 3 -32 -12 -61 -34z"/>
<path d="M3526 2233 c-12 -152 -4 -393 14 -393 11 0 235 229 238 244 1 7 -30
40 -70 74 -40 34 -93 82 -117 107 -25 25 -48 45 -52 45 -3 0 -9 -34 -13 -77z"/>
<path d="M3256 2167 c-9 -23 -16 -46 -16 -50 0 -4 -9 -26 -19 -50 -73 -158
-73 -157 39 -157 64 0 92 4 95 13 9 29 11 267 1 277 -5 5 -26 10 -47 10 -34 0
-37 -3 -53 -43z"/>
<path d="M3402 2063 l3 -148 25 0 25 0 3 148 3 147 -31 0 -31 0 3 -147z"/>
<path d="M3481 2088 c1 -40 5 -86 8 -103 4 -17 7 13 7 72 -1 57 -4 103 -8 103
-5 0 -7 -33 -7 -72z"/>
</g>
</svg>
